<mxfile host="app.diagrams.net" modified="2020-11-30T10:33:55.741Z" agent="5.0 (X11; Linux x86_64) AppleWebKit/537.36 (KHTML, like Gecko) Chrome/85.0.4183.121 Safari/537.36" etag="EvYj-87eB8uJRkE-zCsq" version="13.10.4" type="github">
  <diagram id="U8l5rR7KhavCMogNafTG" name="Page-1">
    <mxGraphModel dx="2357" dy="1322" grid="1" gridSize="10" guides="1" tooltips="1" connect="1" arrows="1" fold="1" page="1" pageScale="1" pageWidth="1169" pageHeight="827" math="0" shadow="0">
      <root>
        <mxCell id="0" />
        <mxCell id="1" parent="0" />
        <mxCell id="OHAno2XGkpBirXsz8sE0-1" value="" style="rounded=0;whiteSpace=wrap;html=1;" vertex="1" parent="1">
          <mxGeometry x="560" y="110" width="80" height="40" as="geometry" />
        </mxCell>
        <mxCell id="OHAno2XGkpBirXsz8sE0-4" value="" style="rounded=0;whiteSpace=wrap;html=1;" vertex="1" parent="1">
          <mxGeometry x="400" y="200" width="80" height="40" as="geometry" />
        </mxCell>
        <mxCell id="OHAno2XGkpBirXsz8sE0-5" value="" style="rounded=0;whiteSpace=wrap;html=1;" vertex="1" parent="1">
          <mxGeometry x="560" y="200" width="80" height="40" as="geometry" />
        </mxCell>
        <mxCell id="OHAno2XGkpBirXsz8sE0-6" value="" style="rounded=0;whiteSpace=wrap;html=1;" vertex="1" parent="1">
          <mxGeometry x="720" y="200" width="80" height="40" as="geometry" />
        </mxCell>
        <mxCell id="OHAno2XGkpBirXsz8sE0-8" value="" style="rounded=0;whiteSpace=wrap;html=1;" vertex="1" parent="1">
          <mxGeometry x="80" y="300" width="80" height="40" as="geometry" />
        </mxCell>
        <mxCell id="OHAno2XGkpBirXsz8sE0-9" value="" style="rounded=0;whiteSpace=wrap;html=1;" vertex="1" parent="1">
          <mxGeometry x="200" y="300" width="80" height="40" as="geometry" />
        </mxCell>
        <mxCell id="OHAno2XGkpBirXsz8sE0-10" value="" style="rounded=0;whiteSpace=wrap;html=1;" vertex="1" parent="1">
          <mxGeometry x="320" y="300" width="80" height="40" as="geometry" />
        </mxCell>
        <mxCell id="OHAno2XGkpBirXsz8sE0-11" value="" style="rounded=0;whiteSpace=wrap;html=1;" vertex="1" parent="1">
          <mxGeometry x="440" y="300" width="80" height="40" as="geometry" />
        </mxCell>
        <mxCell id="OHAno2XGkpBirXsz8sE0-12" value="" style="rounded=0;whiteSpace=wrap;html=1;" vertex="1" parent="1">
          <mxGeometry x="560" y="300" width="80" height="40" as="geometry" />
        </mxCell>
        <mxCell id="OHAno2XGkpBirXsz8sE0-13" value="" style="rounded=0;whiteSpace=wrap;html=1;" vertex="1" parent="1">
          <mxGeometry x="680" y="300" width="80" height="40" as="geometry" />
        </mxCell>
        <mxCell id="OHAno2XGkpBirXsz8sE0-14" value="" style="rounded=0;whiteSpace=wrap;html=1;" vertex="1" parent="1">
          <mxGeometry x="1040" y="300" width="80" height="40" as="geometry" />
        </mxCell>
        <mxCell id="OHAno2XGkpBirXsz8sE0-15" value="" style="endArrow=classic;html=1;exitX=0.25;exitY=1;exitDx=0;exitDy=0;entryX=0.5;entryY=0;entryDx=0;entryDy=0;" edge="1" parent="1" source="OHAno2XGkpBirXsz8sE0-1" target="OHAno2XGkpBirXsz8sE0-4">
          <mxGeometry width="50" height="50" relative="1" as="geometry">
            <mxPoint x="530" y="400" as="sourcePoint" />
            <mxPoint x="580" y="350" as="targetPoint" />
          </mxGeometry>
        </mxCell>
        <mxCell id="OHAno2XGkpBirXsz8sE0-16" value="" style="endArrow=classic;html=1;exitX=0.5;exitY=1;exitDx=0;exitDy=0;" edge="1" parent="1" source="OHAno2XGkpBirXsz8sE0-1" target="OHAno2XGkpBirXsz8sE0-5">
          <mxGeometry width="50" height="50" relative="1" as="geometry">
            <mxPoint x="530" y="400" as="sourcePoint" />
            <mxPoint x="580" y="350" as="targetPoint" />
          </mxGeometry>
        </mxCell>
        <mxCell id="OHAno2XGkpBirXsz8sE0-17" value="" style="endArrow=classic;html=1;exitX=0.75;exitY=1;exitDx=0;exitDy=0;entryX=0.5;entryY=0;entryDx=0;entryDy=0;" edge="1" parent="1" source="OHAno2XGkpBirXsz8sE0-1" target="OHAno2XGkpBirXsz8sE0-6">
          <mxGeometry width="50" height="50" relative="1" as="geometry">
            <mxPoint x="530" y="400" as="sourcePoint" />
            <mxPoint x="580" y="350" as="targetPoint" />
          </mxGeometry>
        </mxCell>
        <mxCell id="OHAno2XGkpBirXsz8sE0-19" value="" style="endArrow=classic;html=1;exitX=0.25;exitY=1;exitDx=0;exitDy=0;entryX=0.5;entryY=0;entryDx=0;entryDy=0;" edge="1" parent="1" source="OHAno2XGkpBirXsz8sE0-4" target="OHAno2XGkpBirXsz8sE0-8">
          <mxGeometry width="50" height="50" relative="1" as="geometry">
            <mxPoint x="690" y="360" as="sourcePoint" />
            <mxPoint x="740" y="310" as="targetPoint" />
          </mxGeometry>
        </mxCell>
        <mxCell id="OHAno2XGkpBirXsz8sE0-20" value="" style="endArrow=classic;html=1;exitX=0.75;exitY=1;exitDx=0;exitDy=0;entryX=0.5;entryY=0;entryDx=0;entryDy=0;" edge="1" parent="1" source="OHAno2XGkpBirXsz8sE0-4" target="OHAno2XGkpBirXsz8sE0-10">
          <mxGeometry width="50" height="50" relative="1" as="geometry">
            <mxPoint x="690" y="360" as="sourcePoint" />
            <mxPoint x="740" y="310" as="targetPoint" />
          </mxGeometry>
        </mxCell>
        <mxCell id="OHAno2XGkpBirXsz8sE0-21" value="" style="endArrow=classic;html=1;exitX=0.5;exitY=1;exitDx=0;exitDy=0;entryX=0.5;entryY=0;entryDx=0;entryDy=0;" edge="1" parent="1" source="OHAno2XGkpBirXsz8sE0-4" target="OHAno2XGkpBirXsz8sE0-9">
          <mxGeometry width="50" height="50" relative="1" as="geometry">
            <mxPoint x="690" y="360" as="sourcePoint" />
            <mxPoint x="740" y="310" as="targetPoint" />
          </mxGeometry>
        </mxCell>
        <mxCell id="OHAno2XGkpBirXsz8sE0-22" value="" style="endArrow=classic;html=1;exitX=0.5;exitY=1;exitDx=0;exitDy=0;entryX=0.5;entryY=0;entryDx=0;entryDy=0;" edge="1" parent="1" source="OHAno2XGkpBirXsz8sE0-5" target="OHAno2XGkpBirXsz8sE0-12">
          <mxGeometry width="50" height="50" relative="1" as="geometry">
            <mxPoint x="690" y="360" as="sourcePoint" />
            <mxPoint x="740" y="310" as="targetPoint" />
          </mxGeometry>
        </mxCell>
        <mxCell id="OHAno2XGkpBirXsz8sE0-23" value="" style="endArrow=classic;html=1;exitX=0.75;exitY=1;exitDx=0;exitDy=0;entryX=0.5;entryY=0;entryDx=0;entryDy=0;" edge="1" parent="1" source="OHAno2XGkpBirXsz8sE0-5" target="OHAno2XGkpBirXsz8sE0-13">
          <mxGeometry width="50" height="50" relative="1" as="geometry">
            <mxPoint x="690" y="360" as="sourcePoint" />
            <mxPoint x="740" y="310" as="targetPoint" />
          </mxGeometry>
        </mxCell>
        <mxCell id="OHAno2XGkpBirXsz8sE0-24" value="" style="endArrow=classic;html=1;exitX=0.25;exitY=1;exitDx=0;exitDy=0;entryX=0.5;entryY=0;entryDx=0;entryDy=0;" edge="1" parent="1" source="OHAno2XGkpBirXsz8sE0-5" target="OHAno2XGkpBirXsz8sE0-11">
          <mxGeometry width="50" height="50" relative="1" as="geometry">
            <mxPoint x="690" y="360" as="sourcePoint" />
            <mxPoint x="740" y="310" as="targetPoint" />
          </mxGeometry>
        </mxCell>
        <mxCell id="OHAno2XGkpBirXsz8sE0-25" value="" style="rounded=0;whiteSpace=wrap;html=1;" vertex="1" parent="1">
          <mxGeometry x="800" y="300" width="80" height="40" as="geometry" />
        </mxCell>
        <mxCell id="OHAno2XGkpBirXsz8sE0-26" value="" style="rounded=0;whiteSpace=wrap;html=1;" vertex="1" parent="1">
          <mxGeometry x="920" y="300" width="80" height="40" as="geometry" />
        </mxCell>
        <mxCell id="OHAno2XGkpBirXsz8sE0-27" value="" style="endArrow=classic;html=1;exitX=0.25;exitY=1;exitDx=0;exitDy=0;entryX=0.5;entryY=0;entryDx=0;entryDy=0;" edge="1" parent="1" source="OHAno2XGkpBirXsz8sE0-6" target="OHAno2XGkpBirXsz8sE0-25">
          <mxGeometry width="50" height="50" relative="1" as="geometry">
            <mxPoint x="690" y="360" as="sourcePoint" />
            <mxPoint x="740" y="310" as="targetPoint" />
          </mxGeometry>
        </mxCell>
        <mxCell id="OHAno2XGkpBirXsz8sE0-28" value="" style="endArrow=classic;html=1;exitX=0.5;exitY=1;exitDx=0;exitDy=0;entryX=0.5;entryY=0;entryDx=0;entryDy=0;" edge="1" parent="1" source="OHAno2XGkpBirXsz8sE0-6" target="OHAno2XGkpBirXsz8sE0-26">
          <mxGeometry width="50" height="50" relative="1" as="geometry">
            <mxPoint x="690" y="360" as="sourcePoint" />
            <mxPoint x="740" y="310" as="targetPoint" />
          </mxGeometry>
        </mxCell>
        <mxCell id="OHAno2XGkpBirXsz8sE0-29" value="" style="endArrow=classic;html=1;exitX=0.75;exitY=1;exitDx=0;exitDy=0;entryX=0.5;entryY=0;entryDx=0;entryDy=0;" edge="1" parent="1" source="OHAno2XGkpBirXsz8sE0-6" target="OHAno2XGkpBirXsz8sE0-14">
          <mxGeometry width="50" height="50" relative="1" as="geometry">
            <mxPoint x="690" y="360" as="sourcePoint" />
            <mxPoint x="740" y="310" as="targetPoint" />
          </mxGeometry>
        </mxCell>
        <mxCell id="OHAno2XGkpBirXsz8sE0-31" value="" style="rounded=0;whiteSpace=wrap;html=1;" vertex="1" parent="1">
          <mxGeometry x="40" y="560" width="80" height="120" as="geometry" />
        </mxCell>
        <mxCell id="OHAno2XGkpBirXsz8sE0-32" value="" style="rounded=0;whiteSpace=wrap;html=1;" vertex="1" parent="1">
          <mxGeometry x="120" y="560" width="80" height="120" as="geometry" />
        </mxCell>
        <mxCell id="OHAno2XGkpBirXsz8sE0-33" value="" style="rounded=0;whiteSpace=wrap;html=1;" vertex="1" parent="1">
          <mxGeometry x="200" y="560" width="80" height="120" as="geometry" />
        </mxCell>
        <mxCell id="OHAno2XGkpBirXsz8sE0-34" value="" style="rounded=0;whiteSpace=wrap;html=1;" vertex="1" parent="1">
          <mxGeometry x="280" y="560" width="80" height="120" as="geometry" />
        </mxCell>
        <mxCell id="OHAno2XGkpBirXsz8sE0-35" value="" style="endArrow=classic;html=1;exitX=0.5;exitY=1;exitDx=0;exitDy=0;" edge="1" parent="1" source="OHAno2XGkpBirXsz8sE0-8">
          <mxGeometry width="50" height="50" relative="1" as="geometry">
            <mxPoint x="660" y="540" as="sourcePoint" />
            <mxPoint x="120" y="400" as="targetPoint" />
          </mxGeometry>
        </mxCell>
        <mxCell id="OHAno2XGkpBirXsz8sE0-36" value="" style="endArrow=classic;html=1;exitX=0.75;exitY=1;exitDx=0;exitDy=0;" edge="1" parent="1" source="OHAno2XGkpBirXsz8sE0-8">
          <mxGeometry width="50" height="50" relative="1" as="geometry">
            <mxPoint x="130" y="350" as="sourcePoint" />
            <mxPoint x="170" y="400" as="targetPoint" />
          </mxGeometry>
        </mxCell>
        <mxCell id="OHAno2XGkpBirXsz8sE0-37" value="" style="endArrow=classic;html=1;exitX=0.25;exitY=1;exitDx=0;exitDy=0;" edge="1" parent="1" source="OHAno2XGkpBirXsz8sE0-8">
          <mxGeometry width="50" height="50" relative="1" as="geometry">
            <mxPoint x="330" y="450" as="sourcePoint" />
            <mxPoint x="70" y="400" as="targetPoint" />
          </mxGeometry>
        </mxCell>
        <mxCell id="OHAno2XGkpBirXsz8sE0-38" value="" style="endArrow=classic;html=1;exitX=0.5;exitY=1;exitDx=0;exitDy=0;" edge="1" parent="1" source="OHAno2XGkpBirXsz8sE0-9">
          <mxGeometry width="50" height="50" relative="1" as="geometry">
            <mxPoint x="250" y="360" as="sourcePoint" />
            <mxPoint x="240" y="400" as="targetPoint" />
          </mxGeometry>
        </mxCell>
        <mxCell id="OHAno2XGkpBirXsz8sE0-39" value="" style="endArrow=classic;html=1;exitX=0.75;exitY=1;exitDx=0;exitDy=0;" edge="1" parent="1">
          <mxGeometry width="50" height="50" relative="1" as="geometry">
            <mxPoint x="260" y="340" as="sourcePoint" />
            <mxPoint x="290" y="400" as="targetPoint" />
          </mxGeometry>
        </mxCell>
        <mxCell id="OHAno2XGkpBirXsz8sE0-40" value="" style="endArrow=classic;html=1;exitX=0.25;exitY=1;exitDx=0;exitDy=0;" edge="1" parent="1" source="OHAno2XGkpBirXsz8sE0-9">
          <mxGeometry width="50" height="50" relative="1" as="geometry">
            <mxPoint x="230" y="353" as="sourcePoint" />
            <mxPoint x="190" y="400" as="targetPoint" />
          </mxGeometry>
        </mxCell>
        <mxCell id="OHAno2XGkpBirXsz8sE0-41" value="" style="rounded=0;whiteSpace=wrap;html=1;" vertex="1" parent="1">
          <mxGeometry x="120" y="480" width="80" height="40" as="geometry" />
        </mxCell>
        <mxCell id="OHAno2XGkpBirXsz8sE0-42" value="" style="endArrow=classic;html=1;exitX=0.5;exitY=1;exitDx=0;exitDy=0;" edge="1" source="OHAno2XGkpBirXsz8sE0-41" parent="1">
          <mxGeometry width="50" height="50" relative="1" as="geometry">
            <mxPoint x="170" y="540" as="sourcePoint" />
            <mxPoint x="160" y="560" as="targetPoint" />
          </mxGeometry>
        </mxCell>
        <mxCell id="OHAno2XGkpBirXsz8sE0-43" value="" style="endArrow=classic;html=1;exitX=0.75;exitY=1;exitDx=0;exitDy=0;entryX=0.5;entryY=0;entryDx=0;entryDy=0;" edge="1" parent="1" target="OHAno2XGkpBirXsz8sE0-33">
          <mxGeometry width="50" height="50" relative="1" as="geometry">
            <mxPoint x="180" y="520" as="sourcePoint" />
            <mxPoint x="210" y="580" as="targetPoint" />
          </mxGeometry>
        </mxCell>
        <mxCell id="OHAno2XGkpBirXsz8sE0-44" value="" style="endArrow=classic;html=1;exitX=0.25;exitY=1;exitDx=0;exitDy=0;entryX=0.5;entryY=0;entryDx=0;entryDy=0;" edge="1" source="OHAno2XGkpBirXsz8sE0-41" parent="1" target="OHAno2XGkpBirXsz8sE0-31">
          <mxGeometry width="50" height="50" relative="1" as="geometry">
            <mxPoint x="150" y="533" as="sourcePoint" />
            <mxPoint x="110" y="580" as="targetPoint" />
          </mxGeometry>
        </mxCell>
        <mxCell id="OHAno2XGkpBirXsz8sE0-45" value="" style="endArrow=classic;html=1;entryX=0.5;entryY=0;entryDx=0;entryDy=0;" edge="1" parent="1" target="OHAno2XGkpBirXsz8sE0-41">
          <mxGeometry width="50" height="50" relative="1" as="geometry">
            <mxPoint x="160" y="450" as="sourcePoint" />
            <mxPoint x="290" y="430" as="targetPoint" />
          </mxGeometry>
        </mxCell>
        <mxCell id="OHAno2XGkpBirXsz8sE0-47" value="" style="rounded=0;whiteSpace=wrap;html=1;fillColor=#d5e8d4;strokeColor=#82b366;" vertex="1" parent="1">
          <mxGeometry x="42" y="580" width="76" height="18" as="geometry" />
        </mxCell>
        <mxCell id="OHAno2XGkpBirXsz8sE0-49" value="" style="rounded=0;whiteSpace=wrap;html=1;fillColor=#d5e8d4;strokeColor=#82b366;" vertex="1" parent="1">
          <mxGeometry x="42" y="600" width="76" height="18" as="geometry" />
        </mxCell>
        <mxCell id="OHAno2XGkpBirXsz8sE0-50" value="" style="rounded=0;whiteSpace=wrap;html=1;fillColor=#d5e8d4;strokeColor=#82b366;" vertex="1" parent="1">
          <mxGeometry x="42" y="620" width="76" height="18" as="geometry" />
        </mxCell>
        <mxCell id="OHAno2XGkpBirXsz8sE0-51" value="" style="rounded=0;whiteSpace=wrap;html=1;fillColor=#d5e8d4;strokeColor=#82b366;" vertex="1" parent="1">
          <mxGeometry x="42" y="640" width="76" height="18" as="geometry" />
        </mxCell>
        <mxCell id="OHAno2XGkpBirXsz8sE0-52" value="" style="rounded=0;whiteSpace=wrap;html=1;fillColor=#d5e8d4;strokeColor=#82b366;" vertex="1" parent="1">
          <mxGeometry x="42" y="660" width="76" height="18" as="geometry" />
        </mxCell>
        <mxCell id="OHAno2XGkpBirXsz8sE0-53" value="" style="rounded=0;whiteSpace=wrap;html=1;fillColor=#d5e8d4;strokeColor=#82b366;" vertex="1" parent="1">
          <mxGeometry x="122" y="580" width="76" height="18" as="geometry" />
        </mxCell>
        <mxCell id="OHAno2XGkpBirXsz8sE0-54" value="" style="rounded=0;whiteSpace=wrap;html=1;fillColor=#d5e8d4;strokeColor=#82b366;" vertex="1" parent="1">
          <mxGeometry x="122" y="600" width="76" height="18" as="geometry" />
        </mxCell>
        <mxCell id="OHAno2XGkpBirXsz8sE0-55" value="" style="rounded=0;whiteSpace=wrap;html=1;fillColor=#d5e8d4;strokeColor=#82b366;" vertex="1" parent="1">
          <mxGeometry x="122" y="620" width="76" height="18" as="geometry" />
        </mxCell>
        <mxCell id="OHAno2XGkpBirXsz8sE0-56" value="" style="rounded=0;whiteSpace=wrap;html=1;fillColor=#d5e8d4;strokeColor=#82b366;" vertex="1" parent="1">
          <mxGeometry x="122" y="640" width="76" height="18" as="geometry" />
        </mxCell>
        <mxCell id="OHAno2XGkpBirXsz8sE0-57" value="" style="rounded=0;whiteSpace=wrap;html=1;fillColor=#d5e8d4;strokeColor=#82b366;" vertex="1" parent="1">
          <mxGeometry x="122" y="660" width="76" height="18" as="geometry" />
        </mxCell>
        <mxCell id="OHAno2XGkpBirXsz8sE0-58" value="" style="rounded=0;whiteSpace=wrap;html=1;fillColor=#d5e8d4;strokeColor=#82b366;" vertex="1" parent="1">
          <mxGeometry x="202" y="580" width="76" height="18" as="geometry" />
        </mxCell>
        <mxCell id="OHAno2XGkpBirXsz8sE0-59" value="" style="rounded=0;whiteSpace=wrap;html=1;fillColor=#d5e8d4;strokeColor=#82b366;" vertex="1" parent="1">
          <mxGeometry x="202" y="600" width="76" height="18" as="geometry" />
        </mxCell>
        <mxCell id="OHAno2XGkpBirXsz8sE0-60" value="" style="rounded=0;whiteSpace=wrap;html=1;fillColor=#d5e8d4;strokeColor=#82b366;" vertex="1" parent="1">
          <mxGeometry x="202" y="620" width="76" height="18" as="geometry" />
        </mxCell>
        <mxCell id="OHAno2XGkpBirXsz8sE0-61" value="" style="rounded=0;whiteSpace=wrap;html=1;fillColor=#d5e8d4;strokeColor=#82b366;" vertex="1" parent="1">
          <mxGeometry x="202" y="640" width="76" height="18" as="geometry" />
        </mxCell>
        <mxCell id="OHAno2XGkpBirXsz8sE0-62" value="" style="rounded=0;whiteSpace=wrap;html=1;fillColor=#d5e8d4;strokeColor=#82b366;" vertex="1" parent="1">
          <mxGeometry x="202" y="660" width="76" height="18" as="geometry" />
        </mxCell>
        <mxCell id="OHAno2XGkpBirXsz8sE0-63" value="" style="rounded=0;whiteSpace=wrap;html=1;fillColor=#d5e8d4;strokeColor=#82b366;" vertex="1" parent="1">
          <mxGeometry x="282" y="580" width="76" height="18" as="geometry" />
        </mxCell>
        <mxCell id="OHAno2XGkpBirXsz8sE0-64" value="" style="rounded=0;whiteSpace=wrap;html=1;fillColor=#d5e8d4;strokeColor=#82b366;" vertex="1" parent="1">
          <mxGeometry x="282" y="600" width="76" height="18" as="geometry" />
        </mxCell>
        <mxCell id="OHAno2XGkpBirXsz8sE0-65" value="" style="rounded=0;whiteSpace=wrap;html=1;fillColor=#d5e8d4;strokeColor=#82b366;" vertex="1" parent="1">
          <mxGeometry x="282" y="620" width="76" height="18" as="geometry" />
        </mxCell>
        <mxCell id="OHAno2XGkpBirXsz8sE0-66" value="" style="rounded=0;whiteSpace=wrap;html=1;fillColor=#d5e8d4;strokeColor=#82b366;" vertex="1" parent="1">
          <mxGeometry x="282" y="640" width="76" height="18" as="geometry" />
        </mxCell>
        <mxCell id="OHAno2XGkpBirXsz8sE0-67" value="" style="rounded=0;whiteSpace=wrap;html=1;fillColor=#d5e8d4;strokeColor=#82b366;" vertex="1" parent="1">
          <mxGeometry x="282" y="660" width="76" height="18" as="geometry" />
        </mxCell>
        <mxCell id="OHAno2XGkpBirXsz8sE0-68" value="" style="rounded=0;whiteSpace=wrap;html=1;fillColor=#fff2cc;strokeColor=#d6b656;" vertex="1" parent="1">
          <mxGeometry x="565" y="117" width="20" height="30" as="geometry" />
        </mxCell>
        <mxCell id="OHAno2XGkpBirXsz8sE0-69" value="" style="rounded=0;whiteSpace=wrap;html=1;fillColor=#fff2cc;strokeColor=#d6b656;" vertex="1" parent="1">
          <mxGeometry x="590" y="117" width="20" height="30" as="geometry" />
        </mxCell>
        <mxCell id="OHAno2XGkpBirXsz8sE0-70" value="" style="rounded=0;whiteSpace=wrap;html=1;fillColor=#fff2cc;strokeColor=#d6b656;" vertex="1" parent="1">
          <mxGeometry x="615" y="117" width="20" height="30" as="geometry" />
        </mxCell>
        <mxCell id="OHAno2XGkpBirXsz8sE0-71" value="" style="rounded=0;whiteSpace=wrap;html=1;fillColor=#fff2cc;strokeColor=#d6b656;" vertex="1" parent="1">
          <mxGeometry x="430" y="207" width="20" height="30" as="geometry" />
        </mxCell>
        <mxCell id="OHAno2XGkpBirXsz8sE0-72" value="" style="rounded=0;whiteSpace=wrap;html=1;fillColor=#fff2cc;strokeColor=#d6b656;" vertex="1" parent="1">
          <mxGeometry x="405" y="207" width="20" height="30" as="geometry" />
        </mxCell>
        <mxCell id="OHAno2XGkpBirXsz8sE0-73" value="" style="rounded=0;whiteSpace=wrap;html=1;fillColor=#fff2cc;strokeColor=#d6b656;" vertex="1" parent="1">
          <mxGeometry x="455" y="207" width="20" height="30" as="geometry" />
        </mxCell>
        <mxCell id="OHAno2XGkpBirXsz8sE0-74" value="" style="rounded=0;whiteSpace=wrap;html=1;fillColor=#fff2cc;strokeColor=#d6b656;" vertex="1" parent="1">
          <mxGeometry x="590" y="207" width="20" height="30" as="geometry" />
        </mxCell>
        <mxCell id="OHAno2XGkpBirXsz8sE0-75" value="" style="rounded=0;whiteSpace=wrap;html=1;fillColor=#fff2cc;strokeColor=#d6b656;" vertex="1" parent="1">
          <mxGeometry x="565" y="207" width="20" height="30" as="geometry" />
        </mxCell>
        <mxCell id="OHAno2XGkpBirXsz8sE0-76" value="" style="rounded=0;whiteSpace=wrap;html=1;fillColor=#fff2cc;strokeColor=#d6b656;" vertex="1" parent="1">
          <mxGeometry x="615" y="207" width="20" height="30" as="geometry" />
        </mxCell>
        <mxCell id="OHAno2XGkpBirXsz8sE0-77" value="" style="rounded=0;whiteSpace=wrap;html=1;fillColor=#fff2cc;strokeColor=#d6b656;" vertex="1" parent="1">
          <mxGeometry x="750" y="207" width="20" height="30" as="geometry" />
        </mxCell>
        <mxCell id="OHAno2XGkpBirXsz8sE0-78" value="" style="rounded=0;whiteSpace=wrap;html=1;fillColor=#fff2cc;strokeColor=#d6b656;" vertex="1" parent="1">
          <mxGeometry x="725" y="207" width="20" height="30" as="geometry" />
        </mxCell>
        <mxCell id="OHAno2XGkpBirXsz8sE0-79" value="" style="rounded=0;whiteSpace=wrap;html=1;fillColor=#fff2cc;strokeColor=#d6b656;" vertex="1" parent="1">
          <mxGeometry x="775" y="207" width="20" height="30" as="geometry" />
        </mxCell>
        <mxCell id="OHAno2XGkpBirXsz8sE0-80" value="" style="rounded=0;whiteSpace=wrap;html=1;fillColor=#fff2cc;strokeColor=#d6b656;" vertex="1" parent="1">
          <mxGeometry x="710" y="307" width="20" height="30" as="geometry" />
        </mxCell>
        <mxCell id="OHAno2XGkpBirXsz8sE0-81" value="" style="rounded=0;whiteSpace=wrap;html=1;fillColor=#fff2cc;strokeColor=#d6b656;" vertex="1" parent="1">
          <mxGeometry x="685" y="307" width="20" height="30" as="geometry" />
        </mxCell>
        <mxCell id="OHAno2XGkpBirXsz8sE0-82" value="" style="rounded=0;whiteSpace=wrap;html=1;fillColor=#fff2cc;strokeColor=#d6b656;" vertex="1" parent="1">
          <mxGeometry x="735" y="307" width="20" height="30" as="geometry" />
        </mxCell>
        <mxCell id="OHAno2XGkpBirXsz8sE0-83" value="" style="rounded=0;whiteSpace=wrap;html=1;fillColor=#fff2cc;strokeColor=#d6b656;" vertex="1" parent="1">
          <mxGeometry x="565" y="307" width="20" height="30" as="geometry" />
        </mxCell>
        <mxCell id="OHAno2XGkpBirXsz8sE0-84" value="" style="rounded=0;whiteSpace=wrap;html=1;fillColor=#fff2cc;strokeColor=#d6b656;" vertex="1" parent="1">
          <mxGeometry x="590" y="307" width="20" height="30" as="geometry" />
        </mxCell>
        <mxCell id="OHAno2XGkpBirXsz8sE0-85" value="" style="rounded=0;whiteSpace=wrap;html=1;fillColor=#fff2cc;strokeColor=#d6b656;" vertex="1" parent="1">
          <mxGeometry x="615" y="307" width="20" height="30" as="geometry" />
        </mxCell>
        <mxCell id="OHAno2XGkpBirXsz8sE0-86" value="" style="rounded=0;whiteSpace=wrap;html=1;fillColor=#fff2cc;strokeColor=#d6b656;" vertex="1" parent="1">
          <mxGeometry x="445" y="307" width="20" height="30" as="geometry" />
        </mxCell>
        <mxCell id="OHAno2XGkpBirXsz8sE0-87" value="" style="rounded=0;whiteSpace=wrap;html=1;fillColor=#fff2cc;strokeColor=#d6b656;" vertex="1" parent="1">
          <mxGeometry x="470" y="307" width="20" height="30" as="geometry" />
        </mxCell>
        <mxCell id="OHAno2XGkpBirXsz8sE0-88" value="" style="rounded=0;whiteSpace=wrap;html=1;fillColor=#fff2cc;strokeColor=#d6b656;" vertex="1" parent="1">
          <mxGeometry x="495" y="307" width="20" height="30" as="geometry" />
        </mxCell>
        <mxCell id="OHAno2XGkpBirXsz8sE0-89" value="" style="rounded=0;whiteSpace=wrap;html=1;fillColor=#fff2cc;strokeColor=#d6b656;" vertex="1" parent="1">
          <mxGeometry x="325" y="307" width="20" height="30" as="geometry" />
        </mxCell>
        <mxCell id="OHAno2XGkpBirXsz8sE0-90" value="" style="rounded=0;whiteSpace=wrap;html=1;fillColor=#fff2cc;strokeColor=#d6b656;" vertex="1" parent="1">
          <mxGeometry x="350" y="307" width="20" height="30" as="geometry" />
        </mxCell>
        <mxCell id="OHAno2XGkpBirXsz8sE0-91" value="" style="rounded=0;whiteSpace=wrap;html=1;fillColor=#fff2cc;strokeColor=#d6b656;" vertex="1" parent="1">
          <mxGeometry x="375" y="307" width="20" height="30" as="geometry" />
        </mxCell>
        <mxCell id="OHAno2XGkpBirXsz8sE0-92" value="" style="rounded=0;whiteSpace=wrap;html=1;fillColor=#fff2cc;strokeColor=#d6b656;" vertex="1" parent="1">
          <mxGeometry x="205" y="307" width="20" height="30" as="geometry" />
        </mxCell>
        <mxCell id="OHAno2XGkpBirXsz8sE0-93" value="" style="rounded=0;whiteSpace=wrap;html=1;fillColor=#fff2cc;strokeColor=#d6b656;" vertex="1" parent="1">
          <mxGeometry x="230" y="307" width="20" height="30" as="geometry" />
        </mxCell>
        <mxCell id="OHAno2XGkpBirXsz8sE0-94" value="" style="rounded=0;whiteSpace=wrap;html=1;fillColor=#fff2cc;strokeColor=#d6b656;" vertex="1" parent="1">
          <mxGeometry x="255" y="307" width="20" height="30" as="geometry" />
        </mxCell>
        <mxCell id="OHAno2XGkpBirXsz8sE0-95" value="" style="rounded=0;whiteSpace=wrap;html=1;fillColor=#fff2cc;strokeColor=#d6b656;" vertex="1" parent="1">
          <mxGeometry x="85" y="307" width="20" height="30" as="geometry" />
        </mxCell>
        <mxCell id="OHAno2XGkpBirXsz8sE0-96" value="" style="rounded=0;whiteSpace=wrap;html=1;fillColor=#fff2cc;strokeColor=#d6b656;" vertex="1" parent="1">
          <mxGeometry x="110" y="307" width="20" height="30" as="geometry" />
        </mxCell>
        <mxCell id="OHAno2XGkpBirXsz8sE0-97" value="" style="rounded=0;whiteSpace=wrap;html=1;fillColor=#fff2cc;strokeColor=#d6b656;" vertex="1" parent="1">
          <mxGeometry x="135" y="307" width="20" height="30" as="geometry" />
        </mxCell>
        <mxCell id="OHAno2XGkpBirXsz8sE0-98" value="" style="rounded=0;whiteSpace=wrap;html=1;fillColor=#fff2cc;strokeColor=#d6b656;" vertex="1" parent="1">
          <mxGeometry x="805" y="307" width="20" height="30" as="geometry" />
        </mxCell>
        <mxCell id="OHAno2XGkpBirXsz8sE0-99" value="" style="rounded=0;whiteSpace=wrap;html=1;fillColor=#fff2cc;strokeColor=#d6b656;" vertex="1" parent="1">
          <mxGeometry x="830" y="307" width="20" height="30" as="geometry" />
        </mxCell>
        <mxCell id="OHAno2XGkpBirXsz8sE0-100" value="" style="rounded=0;whiteSpace=wrap;html=1;fillColor=#fff2cc;strokeColor=#d6b656;" vertex="1" parent="1">
          <mxGeometry x="855" y="307" width="20" height="30" as="geometry" />
        </mxCell>
        <mxCell id="OHAno2XGkpBirXsz8sE0-101" value="" style="rounded=0;whiteSpace=wrap;html=1;fillColor=#fff2cc;strokeColor=#d6b656;" vertex="1" parent="1">
          <mxGeometry x="925" y="307" width="20" height="30" as="geometry" />
        </mxCell>
        <mxCell id="OHAno2XGkpBirXsz8sE0-102" value="" style="rounded=0;whiteSpace=wrap;html=1;fillColor=#fff2cc;strokeColor=#d6b656;" vertex="1" parent="1">
          <mxGeometry x="950" y="307" width="20" height="30" as="geometry" />
        </mxCell>
        <mxCell id="OHAno2XGkpBirXsz8sE0-103" value="" style="rounded=0;whiteSpace=wrap;html=1;fillColor=#fff2cc;strokeColor=#d6b656;" vertex="1" parent="1">
          <mxGeometry x="975" y="307" width="20" height="30" as="geometry" />
        </mxCell>
        <mxCell id="OHAno2XGkpBirXsz8sE0-104" value="" style="rounded=0;whiteSpace=wrap;html=1;fillColor=#fff2cc;strokeColor=#d6b656;" vertex="1" parent="1">
          <mxGeometry x="1045" y="307" width="20" height="30" as="geometry" />
        </mxCell>
        <mxCell id="OHAno2XGkpBirXsz8sE0-105" value="" style="rounded=0;whiteSpace=wrap;html=1;fillColor=#fff2cc;strokeColor=#d6b656;" vertex="1" parent="1">
          <mxGeometry x="1070" y="307" width="20" height="30" as="geometry" />
        </mxCell>
        <mxCell id="OHAno2XGkpBirXsz8sE0-106" value="" style="rounded=0;whiteSpace=wrap;html=1;fillColor=#fff2cc;strokeColor=#d6b656;" vertex="1" parent="1">
          <mxGeometry x="1095" y="307" width="20" height="30" as="geometry" />
        </mxCell>
        <mxCell id="OHAno2XGkpBirXsz8sE0-107" value="" style="rounded=0;whiteSpace=wrap;html=1;fillColor=#fff2cc;strokeColor=#d6b656;" vertex="1" parent="1">
          <mxGeometry x="125" y="487" width="20" height="30" as="geometry" />
        </mxCell>
        <mxCell id="OHAno2XGkpBirXsz8sE0-108" value="" style="rounded=0;whiteSpace=wrap;html=1;fillColor=#fff2cc;strokeColor=#d6b656;" vertex="1" parent="1">
          <mxGeometry x="150" y="487" width="20" height="30" as="geometry" />
        </mxCell>
        <mxCell id="OHAno2XGkpBirXsz8sE0-109" value="" style="rounded=0;whiteSpace=wrap;html=1;fillColor=#fff2cc;strokeColor=#d6b656;" vertex="1" parent="1">
          <mxGeometry x="175" y="487" width="20" height="30" as="geometry" />
        </mxCell>
        <mxCell id="OHAno2XGkpBirXsz8sE0-110" value="" style="rounded=0;whiteSpace=wrap;html=1;" vertex="1" parent="1">
          <mxGeometry x="880" y="560" width="80" height="120" as="geometry" />
        </mxCell>
        <mxCell id="OHAno2XGkpBirXsz8sE0-111" value="" style="rounded=0;whiteSpace=wrap;html=1;" vertex="1" parent="1">
          <mxGeometry x="960" y="560" width="80" height="120" as="geometry" />
        </mxCell>
        <mxCell id="OHAno2XGkpBirXsz8sE0-112" value="" style="rounded=0;whiteSpace=wrap;html=1;" vertex="1" parent="1">
          <mxGeometry x="1040" y="560" width="80" height="120" as="geometry" />
        </mxCell>
        <mxCell id="OHAno2XGkpBirXsz8sE0-113" value="" style="rounded=0;whiteSpace=wrap;html=1;" vertex="1" parent="1">
          <mxGeometry x="800" y="560" width="80" height="120" as="geometry" />
        </mxCell>
        <mxCell id="OHAno2XGkpBirXsz8sE0-114" value="" style="rounded=0;whiteSpace=wrap;html=1;" vertex="1" parent="1">
          <mxGeometry x="960" y="480" width="80" height="40" as="geometry" />
        </mxCell>
        <mxCell id="OHAno2XGkpBirXsz8sE0-115" value="" style="endArrow=classic;html=1;exitX=0.5;exitY=1;exitDx=0;exitDy=0;" edge="1" source="OHAno2XGkpBirXsz8sE0-114" parent="1">
          <mxGeometry width="50" height="50" relative="1" as="geometry">
            <mxPoint x="1010" y="540" as="sourcePoint" />
            <mxPoint x="1000" y="560" as="targetPoint" />
          </mxGeometry>
        </mxCell>
        <mxCell id="OHAno2XGkpBirXsz8sE0-116" value="" style="endArrow=classic;html=1;exitX=0.75;exitY=1;exitDx=0;exitDy=0;entryX=0.5;entryY=0;entryDx=0;entryDy=0;" edge="1" target="OHAno2XGkpBirXsz8sE0-112" parent="1">
          <mxGeometry width="50" height="50" relative="1" as="geometry">
            <mxPoint x="1020" y="520" as="sourcePoint" />
            <mxPoint x="1050" y="580" as="targetPoint" />
          </mxGeometry>
        </mxCell>
        <mxCell id="OHAno2XGkpBirXsz8sE0-117" value="" style="endArrow=classic;html=1;exitX=0.25;exitY=1;exitDx=0;exitDy=0;entryX=0.5;entryY=0;entryDx=0;entryDy=0;" edge="1" source="OHAno2XGkpBirXsz8sE0-114" target="OHAno2XGkpBirXsz8sE0-110" parent="1">
          <mxGeometry width="50" height="50" relative="1" as="geometry">
            <mxPoint x="990" y="533" as="sourcePoint" />
            <mxPoint x="950" y="580" as="targetPoint" />
          </mxGeometry>
        </mxCell>
        <mxCell id="OHAno2XGkpBirXsz8sE0-118" value="" style="endArrow=classic;html=1;entryX=0.5;entryY=0;entryDx=0;entryDy=0;" edge="1" target="OHAno2XGkpBirXsz8sE0-114" parent="1">
          <mxGeometry width="50" height="50" relative="1" as="geometry">
            <mxPoint x="1000" y="450" as="sourcePoint" />
            <mxPoint x="1130" y="430" as="targetPoint" />
          </mxGeometry>
        </mxCell>
        <mxCell id="OHAno2XGkpBirXsz8sE0-119" value="" style="rounded=0;whiteSpace=wrap;html=1;fillColor=#d5e8d4;strokeColor=#82b366;" vertex="1" parent="1">
          <mxGeometry x="882" y="580" width="76" height="18" as="geometry" />
        </mxCell>
        <mxCell id="OHAno2XGkpBirXsz8sE0-120" value="" style="rounded=0;whiteSpace=wrap;html=1;fillColor=#d5e8d4;strokeColor=#82b366;" vertex="1" parent="1">
          <mxGeometry x="882" y="600" width="76" height="18" as="geometry" />
        </mxCell>
        <mxCell id="OHAno2XGkpBirXsz8sE0-121" value="" style="rounded=0;whiteSpace=wrap;html=1;fillColor=#d5e8d4;strokeColor=#82b366;" vertex="1" parent="1">
          <mxGeometry x="882" y="620" width="76" height="18" as="geometry" />
        </mxCell>
        <mxCell id="OHAno2XGkpBirXsz8sE0-122" value="" style="rounded=0;whiteSpace=wrap;html=1;fillColor=#d5e8d4;strokeColor=#82b366;" vertex="1" parent="1">
          <mxGeometry x="882" y="640" width="76" height="18" as="geometry" />
        </mxCell>
        <mxCell id="OHAno2XGkpBirXsz8sE0-123" value="" style="rounded=0;whiteSpace=wrap;html=1;fillColor=#d5e8d4;strokeColor=#82b366;" vertex="1" parent="1">
          <mxGeometry x="882" y="660" width="76" height="18" as="geometry" />
        </mxCell>
        <mxCell id="OHAno2XGkpBirXsz8sE0-124" value="" style="rounded=0;whiteSpace=wrap;html=1;fillColor=#d5e8d4;strokeColor=#82b366;" vertex="1" parent="1">
          <mxGeometry x="962" y="580" width="76" height="18" as="geometry" />
        </mxCell>
        <mxCell id="OHAno2XGkpBirXsz8sE0-125" value="" style="rounded=0;whiteSpace=wrap;html=1;fillColor=#d5e8d4;strokeColor=#82b366;" vertex="1" parent="1">
          <mxGeometry x="962" y="600" width="76" height="18" as="geometry" />
        </mxCell>
        <mxCell id="OHAno2XGkpBirXsz8sE0-126" value="" style="rounded=0;whiteSpace=wrap;html=1;fillColor=#d5e8d4;strokeColor=#82b366;" vertex="1" parent="1">
          <mxGeometry x="962" y="620" width="76" height="18" as="geometry" />
        </mxCell>
        <mxCell id="OHAno2XGkpBirXsz8sE0-127" value="" style="rounded=0;whiteSpace=wrap;html=1;fillColor=#d5e8d4;strokeColor=#82b366;" vertex="1" parent="1">
          <mxGeometry x="962" y="640" width="76" height="18" as="geometry" />
        </mxCell>
        <mxCell id="OHAno2XGkpBirXsz8sE0-128" value="" style="rounded=0;whiteSpace=wrap;html=1;fillColor=#d5e8d4;strokeColor=#82b366;" vertex="1" parent="1">
          <mxGeometry x="962" y="660" width="76" height="18" as="geometry" />
        </mxCell>
        <mxCell id="OHAno2XGkpBirXsz8sE0-129" value="" style="rounded=0;whiteSpace=wrap;html=1;fillColor=#d5e8d4;strokeColor=#82b366;" vertex="1" parent="1">
          <mxGeometry x="1042" y="580" width="76" height="18" as="geometry" />
        </mxCell>
        <mxCell id="OHAno2XGkpBirXsz8sE0-130" value="" style="rounded=0;whiteSpace=wrap;html=1;fillColor=#d5e8d4;strokeColor=#82b366;" vertex="1" parent="1">
          <mxGeometry x="1042" y="600" width="76" height="18" as="geometry" />
        </mxCell>
        <mxCell id="OHAno2XGkpBirXsz8sE0-131" value="" style="rounded=0;whiteSpace=wrap;html=1;fillColor=#d5e8d4;strokeColor=#82b366;" vertex="1" parent="1">
          <mxGeometry x="1042" y="620" width="76" height="18" as="geometry" />
        </mxCell>
        <mxCell id="OHAno2XGkpBirXsz8sE0-132" value="" style="rounded=0;whiteSpace=wrap;html=1;fillColor=#d5e8d4;strokeColor=#82b366;" vertex="1" parent="1">
          <mxGeometry x="1042" y="640" width="76" height="18" as="geometry" />
        </mxCell>
        <mxCell id="OHAno2XGkpBirXsz8sE0-133" value="" style="rounded=0;whiteSpace=wrap;html=1;fillColor=#d5e8d4;strokeColor=#82b366;" vertex="1" parent="1">
          <mxGeometry x="1042" y="660" width="76" height="18" as="geometry" />
        </mxCell>
        <mxCell id="OHAno2XGkpBirXsz8sE0-134" value="" style="rounded=0;whiteSpace=wrap;html=1;fillColor=#d5e8d4;strokeColor=#82b366;" vertex="1" parent="1">
          <mxGeometry x="802" y="580" width="76" height="18" as="geometry" />
        </mxCell>
        <mxCell id="OHAno2XGkpBirXsz8sE0-135" value="" style="rounded=0;whiteSpace=wrap;html=1;fillColor=#d5e8d4;strokeColor=#82b366;" vertex="1" parent="1">
          <mxGeometry x="802" y="600" width="76" height="18" as="geometry" />
        </mxCell>
        <mxCell id="OHAno2XGkpBirXsz8sE0-136" value="" style="rounded=0;whiteSpace=wrap;html=1;fillColor=#d5e8d4;strokeColor=#82b366;" vertex="1" parent="1">
          <mxGeometry x="802" y="620" width="76" height="18" as="geometry" />
        </mxCell>
        <mxCell id="OHAno2XGkpBirXsz8sE0-137" value="" style="rounded=0;whiteSpace=wrap;html=1;fillColor=#d5e8d4;strokeColor=#82b366;" vertex="1" parent="1">
          <mxGeometry x="802" y="640" width="76" height="18" as="geometry" />
        </mxCell>
        <mxCell id="OHAno2XGkpBirXsz8sE0-138" value="" style="rounded=0;whiteSpace=wrap;html=1;fillColor=#d5e8d4;strokeColor=#82b366;" vertex="1" parent="1">
          <mxGeometry x="802" y="660" width="76" height="18" as="geometry" />
        </mxCell>
        <mxCell id="OHAno2XGkpBirXsz8sE0-139" value="" style="rounded=0;whiteSpace=wrap;html=1;fillColor=#fff2cc;strokeColor=#d6b656;" vertex="1" parent="1">
          <mxGeometry x="965" y="487" width="20" height="30" as="geometry" />
        </mxCell>
        <mxCell id="OHAno2XGkpBirXsz8sE0-140" value="" style="rounded=0;whiteSpace=wrap;html=1;fillColor=#fff2cc;strokeColor=#d6b656;" vertex="1" parent="1">
          <mxGeometry x="990" y="487" width="20" height="30" as="geometry" />
        </mxCell>
        <mxCell id="OHAno2XGkpBirXsz8sE0-141" value="" style="rounded=0;whiteSpace=wrap;html=1;fillColor=#fff2cc;strokeColor=#d6b656;" vertex="1" parent="1">
          <mxGeometry x="1015" y="487" width="20" height="30" as="geometry" />
        </mxCell>
        <mxCell id="OHAno2XGkpBirXsz8sE0-142" value="" style="endArrow=classic;html=1;entryX=0.5;entryY=0;entryDx=0;entryDy=0;exitX=0.25;exitY=1;exitDx=0;exitDy=0;" edge="1" parent="1" source="OHAno2XGkpBirXsz8sE0-143" target="OHAno2XGkpBirXsz8sE0-34">
          <mxGeometry width="50" height="50" relative="1" as="geometry">
            <mxPoint x="370" y="520" as="sourcePoint" />
            <mxPoint x="450" y="540" as="targetPoint" />
          </mxGeometry>
        </mxCell>
        <mxCell id="OHAno2XGkpBirXsz8sE0-143" value="" style="rounded=0;whiteSpace=wrap;html=1;" vertex="1" parent="1">
          <mxGeometry x="360" y="480" width="80" height="40" as="geometry" />
        </mxCell>
        <mxCell id="OHAno2XGkpBirXsz8sE0-144" value="" style="endArrow=classic;html=1;entryX=0.5;entryY=0;entryDx=0;entryDy=0;" edge="1" target="OHAno2XGkpBirXsz8sE0-143" parent="1">
          <mxGeometry width="50" height="50" relative="1" as="geometry">
            <mxPoint x="400" y="449.9999999999999" as="sourcePoint" />
            <mxPoint x="530" y="430" as="targetPoint" />
          </mxGeometry>
        </mxCell>
        <mxCell id="OHAno2XGkpBirXsz8sE0-145" value="" style="rounded=0;whiteSpace=wrap;html=1;fillColor=#fff2cc;strokeColor=#d6b656;" vertex="1" parent="1">
          <mxGeometry x="365" y="487" width="20" height="30" as="geometry" />
        </mxCell>
        <mxCell id="OHAno2XGkpBirXsz8sE0-146" value="" style="rounded=0;whiteSpace=wrap;html=1;fillColor=#fff2cc;strokeColor=#d6b656;" vertex="1" parent="1">
          <mxGeometry x="390" y="487" width="20" height="30" as="geometry" />
        </mxCell>
        <mxCell id="OHAno2XGkpBirXsz8sE0-147" value="" style="rounded=0;whiteSpace=wrap;html=1;fillColor=#fff2cc;strokeColor=#d6b656;" vertex="1" parent="1">
          <mxGeometry x="415" y="487" width="20" height="30" as="geometry" />
        </mxCell>
        <mxCell id="OHAno2XGkpBirXsz8sE0-148" value="" style="endArrow=classic;html=1;exitX=0.5;exitY=1;exitDx=0;exitDy=0;" edge="1" parent="1" source="OHAno2XGkpBirXsz8sE0-143">
          <mxGeometry width="50" height="50" relative="1" as="geometry">
            <mxPoint x="400" y="530" as="sourcePoint" />
            <mxPoint x="400" y="560" as="targetPoint" />
          </mxGeometry>
        </mxCell>
        <mxCell id="OHAno2XGkpBirXsz8sE0-149" value="" style="endArrow=classic;html=1;exitX=0.75;exitY=1;exitDx=0;exitDy=0;" edge="1" parent="1" source="OHAno2XGkpBirXsz8sE0-143">
          <mxGeometry width="50" height="50" relative="1" as="geometry">
            <mxPoint x="406.32000000000005" y="530.56" as="sourcePoint" />
            <mxPoint x="480" y="560" as="targetPoint" />
          </mxGeometry>
        </mxCell>
      </root>
    </mxGraphModel>
  </diagram>
</mxfile>
